<?xml version="1.0" encoding="UTF-8"?>
<svg width="65px" height="65px" viewBox="0 0 65 65" version="1.1" xmlns="http://www.w3.org/2000/svg" xmlns:xlink="http://www.w3.org/1999/xlink">
    <!-- Generator: Sketch 54.1 (76490) - https://sketchapp.com -->
    <title>Group</title>
    <desc>Created with Sketch.</desc>
    <defs>
        <path d="M64.92,32.46 C64.92,50.387 50.387,64.92 32.46,64.92 C14.532,64.92 -2.13162821e-14,50.387 -2.13162821e-14,32.46 C-2.13162821e-14,14.533 14.532,-2.13162821e-14 32.46,-2.13162821e-14 C50.387,-2.13162821e-14 64.92,14.533 64.92,32.46" id="path-1"></path>
    </defs>
    <g id="Page-1" stroke="none" stroke-width="1" fill="none" fill-rule="evenodd">
        <g id="Group" transform="translate(0.070100, 0.069700)">
            <mask id="mask-2" fill="white">
                <use xlink:href="#path-1"></use>
            </mask>
            <use id="Fill-1" fill="#00A333" xlink:href="#path-1"></use>
            <g id="Group-27" mask="url(#mask-2)">
                <g transform="translate(4.929900, 10.930300)">
                    <g id="Group-14" transform="translate(3.000000, 0.426800)">
                        <path d="M18.5707669,7.33103276 L9.0471,9.8256 C8.84666082,9.86866958 8.64965172,9.91859932 8.45607271,9.97538922 C8.650199,9.91868733 8.84718487,9.86876441 9.0476,9.8257 L18.5708004,7.33125496 C18.5707892,7.33118089 18.5707781,7.33110683 18.5707669,7.33103276 Z M29.5435125,4.98002926 C32.4564531,5.21270428 35.1209502,6.53672663 37.0621493,8.58830779 C35.120908,6.53656421 32.4561831,5.21236246 29.5433724,4.97952563 C29.5434191,4.97969351 29.5434658,4.97986138 29.5435125,4.98002926 Z M18.5379833,5.9002869 C18.8033175,3.37628738 20.7643947,1.2676594 23.3905,0.9203 C25.6623887,0.619152958 27.7964431,1.7197756 28.9224762,3.55424716 C31.9456583,3.62507027 34.8592,4.75432558 37.1556,6.7517 C39.5516,8.8357 41.0996,11.7167 41.5166,14.8667 C41.7476,16.6097 41.6306,18.3457 41.1676,20.0277 C40.7206,21.6517 39.9726,23.1557 38.9446,24.4977 C37.9156,25.8407 36.6586,26.9537 35.2066,27.8077 C33.7036,28.6927 32.0576,29.2587 30.3156,29.4887 C29.6386,29.5787 28.5316,29.5887 28.0876,29.5887 C28.0296,29.5887 27.9966,29.5877 27.9966,29.5877 L27.9486,29.5877 L27.9016,29.5847 C27.8286,29.5787 27.1966,29.5317 26.8226,29.4817 L9.3806,27.8147 L9.3376,27.8107 L9.2956,27.8037 C7.2436,27.4787 5.3046,26.4827 3.8376,24.9987 C2.3196,23.4647 1.3666,21.5197 1.0826,19.3747 C0.7756,17.0557 1.3056,14.6997 2.5746,12.7387 C3.8296,10.8007 5.7296,9.3597 7.9256,8.6817 C8.1876,8.6007 8.4556,8.5297 8.7226,8.4717 L18.5379833,5.9002869 Z M38.7144446,22.33338 C37.7036783,24.1056162 36.2353131,25.6010027 34.4467637,26.6401363 C36.2352853,25.6009283 37.7036758,24.105556 38.7145309,22.3334289 Z M27.2141095,28.1265134 C27.1286067,28.1173358 27.0489189,28.1078898 26.9831,28.0986 L9.5131,26.4286 C6.65659518,25.9760687 4.20852504,24.073216 3.06911769,21.408599 C4.20797834,24.0732797 6.65606794,25.9761643 9.5126,26.4287 L26.9826,28.0987 C27.0486208,28.1079904 27.1284732,28.1173979 27.2141095,28.1265134 Z M2.98457391,21.2034151 C2.73373612,20.570679 2.55589362,19.8971633 2.4626,19.1917 C2.36512388,18.4570845 2.36523934,17.7320177 2.45293726,17.0295426 C2.36506236,17.731982 2.36480542,18.4570171 2.4621,19.1916 C2.55558438,19.8971004 2.733592,20.5706499 2.98457385,21.2034149 Z M2.52302052,16.5715736 C2.52305038,16.571409 2.52308025,16.5712445 2.52311013,16.5710799 C2.5230803,16.5712445 2.52305041,16.571409 2.52302052,16.5715736 Z M8.33172137,10.0129536 C8.33318072,10.012502 8.33464027,10.0120508 8.3361,10.0116 C8.35008572,10.0072596 8.3640896,10.0029556 8.37811166,9.99868784 C8.36392619,10.0029883 8.34975571,10.0073257 8.3356,10.0117 C8.33430108,10.0121012 8.33300231,10.0125026 8.33170368,10.0129044 Z" id="Combined-Shape" fill="#FFFFFF"></path>
                        <path d="M21.7137,6.8123 C21.8907,8.1463 23.1147,9.0843 24.4487,8.9073 C25.7827,8.7313 26.7207,7.5063 26.5447,6.1723 C26.3677,4.8383 25.1427,3.9003 23.8087,4.0773 C22.4747,4.2533 21.5367,5.4783 21.7137,6.8123" id="Fill-12" fill="#00A333"></path>
                    </g>
                    <g id="Group-21" transform="translate(17.000000, 9.426800)">
                        <g id="Group-17" transform="translate(0.000000, 1.000000)" fill="#FFFFFF">
                            <polyline id="Fill-15" points="25.0799 0.1066 52.4129 40.9966 21.0659 57.9956 7.4689 18.1246 0.2099 17.5616"></polyline>
                        </g>
                        <g id="Group-20" fill="#FFFFFF">
                            <polygon id="Fill-18" points="20.6737 60 6.9577 19.783 0.1567 19.255 0.2637 17.867 7.9797 18.466 21.4597 57.991 51.4097 41.749 24.5017 1.493 25.6587 0.72 53.4157 42.244"></polygon>
                        </g>
                    </g>
                    <g id="Group-26" transform="translate(0.000000, 10.426800)">
                        <path d="M25.6996,3.2227 C25.2916,4.2047 24.7466,5.2847 24.0656,6.4627 C23.3836,7.6427 22.7176,8.5567 22.0676,9.2067 C21.6466,9.6147 20.9556,9.8787 19.9926,9.9997 C19.2156,10.0977 9.5406,10.1557 5.3106,10.1747 L5.3106,12.6937 L26.0086,12.6937 L27.0956,3.2227 L25.6996,3.2227 Z" id="Fill-22" fill="#00A333"></path>
                        <path d="M15.9525,10.1431 C12.3775,10.1691 9.0215,10.1811 8.5515,10.1811 C7.5065,10.1811 6.6875,10.1471 6.0955,10.0761 C5.5025,10.0061 5.0405,9.8501 4.7085,9.6081 C4.3775,9.3791 4.1545,9.0221 4.0395,8.5371 C3.9255,8.0531 3.8675,7.3901 3.8675,6.5491 L3.8675,0.0261 L0.7185,0.0261 L0.7185,12.6941 L15.9525,12.6941 L15.9525,10.1431 Z" id="Fill-24" fill="#00A333"></path>
                    </g>
                </g>
            </g>
        </g>
    </g>
</svg>